<?xml version="1.0" ?><!DOCTYPE svg  PUBLIC '-//W3C//DTD SVG 1.1//EN'  'http://www.w3.org/Graphics/SVG/1.1/DTD/svg11.dtd'><svg height="216.000" viewBox="-81.000 -16.000 212.000 216.000" width="212.000" xmlns="http://www.w3.org/2000/svg"><line fill="none" stroke="none" stroke-linecap="round" stroke-width="2.0" x1="0.0" x2="0.0" y1="0.0" y2="0.0"/><polygon fill="none" fill-rule="evenodd" points="0.0,0.0 0.0,0.0 0.0,0.0" stroke-linejoin="round"/><line fill="none" stroke="#e10000" stroke-linecap="round" stroke-width="2.0" x1="0.0" x2="50.0" y1="0.0" y2="0.0"/><line fill="none" stroke="#00e1e1" stroke-linecap="round" stroke-width="2.0" x1="50.0" x2="93.30127018922194" y1="0.0" y2="24.999999999999996"/><line fill="none" stroke="#66e133" stroke-linecap="round" stroke-width="2.0" x1="93.30127018922194" x2="118.30127018922195" y1="24.999999999999996" y2="68.30127018922192"/><line fill="none" stroke="#3399e1" stroke-linecap="round" stroke-width="2.0" x1="118.30127018922195" x2="118.30127018922197" y1="68.30127018922192" y2="118.30127018922192"/><line fill="none" stroke="#e10000" stroke-linecap="round" stroke-width="2.0" x1="118.30127018922197" x2="93.30127018922198" y1="118.30127018922192" y2="161.60254037844385"/><line fill="none" stroke="#00e1e1" stroke-linecap="round" stroke-width="2.0" x1="93.30127018922198" x2="50.00000000000006" y1="161.60254037844385" y2="186.60254037844388"/><line fill="none" stroke="#66e133" stroke-linecap="round" stroke-width="2.0" x1="50.00000000000006" x2="5.684341886080802e-14" y1="186.60254037844388" y2="186.6025403784439"/><line fill="none" stroke="#3399e1" stroke-linecap="round" stroke-width="2.0" x1="5.684341886080802e-14" x2="-43.30127018922189" y1="186.6025403784439" y2="161.60254037844393"/><line fill="none" stroke="#e10000" stroke-linecap="round" stroke-width="2.0" x1="-43.30127018922189" x2="-68.30127018922192" y1="161.60254037844393" y2="118.30127018922202"/><line fill="none" stroke="#00e1e1" stroke-linecap="round" stroke-width="2.0" x1="-68.30127018922192" x2="-68.30127018922197" y1="118.30127018922202" y2="68.30127018922202"/><line fill="none" stroke="#66e133" stroke-linecap="round" stroke-width="2.0" x1="-68.30127018922197" x2="-43.30127018922201" y1="68.30127018922202" y2="25.000000000000064"/><line fill="none" stroke="#3399e1" stroke-linecap="round" stroke-width="2.0" x1="-43.30127018922201" x2="-9.947598300641403e-14" y1="25.000000000000064" y2="2.1316282072803006e-14"/><line fill="none" stroke="#e10000" stroke-linecap="round" stroke-width="2.0" x1="-9.947598300641403e-14" x2="49.879924028434694" y1="2.1316282072803006e-14" y2="0.08705697889097878"/><line fill="none" stroke="#00e1e1" stroke-linecap="round" stroke-width="2.0" x1="49.879924028434694" x2="92.88623817365107" y1="0.08705697889097878" y2="25.117329523211428"/><line fill="none" stroke="#66e133" stroke-linecap="round" stroke-width="2.0" x1="92.88623817365107" x2="117.48080647463581" y1="25.117329523211428" y2="68.23619789992321"/><line fill="none" stroke="#3399e1" stroke-linecap="round" stroke-width="2.0" x1="117.48080647463581" x2="117.1350944646808" y1="68.23619789992321" y2="117.75499113245436"/><line fill="none" stroke="#e10000" stroke-linecap="round" stroke-width="2.0" x1="117.1350944646808" x2="92.06269933442205" y1="117.75499113245436" y2="160.31947165826574"/><line fill="none" stroke="#00e1e1" stroke-linecap="round" stroke-width="2.0" x1="92.06269933442205" x2="49.129282722419134" y1="160.31947165826574" y2="184.51120863641992"/><line fill="none" stroke="#66e133" stroke-linecap="round" stroke-width="2.0" x1="49.129282722419134" x2="-0.027048450088685172" y1="184.51120863641992" y2="183.9106208753592"/><line fill="none" stroke="#3399e1" stroke-linecap="round" stroke-width="2.0" x1="-0.027048450088685172" x2="-42.15044179556849" y1="183.9106208753592" y2="158.8000387821064"/><line fill="none" stroke="#e10000" stroke-linecap="round" stroke-width="2.0" x1="-42.15044179556849" x2="-65.94196860588568" y1="158.8000387821064" y2="116.05510163121147"/><line fill="none" stroke="#00e1e1" stroke-linecap="round" stroke-width="2.0" x1="-65.94196860588568" x2="-65.09029117174627" y1="116.05510163121147" y2="67.26253410757957"/><line fill="none" stroke="#66e133" stroke-linecap="round" stroke-width="2.0" x1="-65.09029117174627" x2="-39.945448722518165" y1="67.26253410757957" y2="25.579452429235573"/><line fill="none" stroke="#3399e1" stroke-linecap="round" stroke-width="2.0" x1="-39.945448722518165" x2="2.608003660411839" y1="25.579452429235573" y2="2.1854940148562534"/><line fill="none" stroke="#e10000" stroke-linecap="round" stroke-width="2.0" x1="2.608003660411839" x2="51.03553565600335" y1="2.1854940148562534" y2="3.2844684531217587"/><line fill="none" stroke="#00e1e1" stroke-linecap="round" stroke-width="2.0" x1="51.03553565600335" x2="92.27911018034717" y1="3.2844684531217587" y2="28.45965386365839"/><line fill="none" stroke="#66e133" stroke-linecap="round" stroke-width="2.0" x1="92.27911018034717" x2="115.27816242486031" y1="28.45965386365839" y2="70.81863869396511"/><line fill="none" stroke="#3399e1" stroke-linecap="round" stroke-width="2.0" x1="115.27816242486031" x2="113.93569003503114" y1="70.81863869396511" y2="118.87989302510536"/><line fill="none" stroke="#e10000" stroke-linecap="round" stroke-width="2.0" x1="113.93569003503114" x2="88.7340696496052" y1="118.87989302510536" y2="159.68479383308286"/><line fill="none" stroke="#00e1e1" stroke-linecap="round" stroke-width="2.0" x1="88.7340696496052" x2="46.57251250281598" y1="159.68479383308286" y2="182.29162242441842"/><line fill="none" stroke="#66e133" stroke-linecap="round" stroke-width="2.0" x1="46.57251250281598" x2="-1.1212518019246644" y1="182.29162242441842" y2="180.70945731171796"/><line fill="none" stroke="#3399e1" stroke-linecap="round" stroke-width="2.0" x1="-1.1212518019246644" x2="-41.48834117897054" y1="180.70945731171796" y2="155.4853003342174"/><line fill="none" stroke="#e10000" stroke-linecap="round" stroke-width="2.0" x1="-41.48834117897054" x2="-63.70564876006257" y1="155.4853003342174" y2="113.52410821760625"/><line fill="none" stroke="#00e1e1" stroke-linecap="round" stroke-width="2.0" x1="-63.70564876006257" x2="-61.88760212167763" y1="113.52410821760625" y2="66.19901649639925"/><line fill="none" stroke="#66e133" stroke-linecap="round" stroke-width="2.0" x1="-61.88760212167763" x2="-36.64479713650224" y1="66.19901649639925" y2="26.268847494998774"/><line fill="none" stroke="#3399e1" stroke-linecap="round" stroke-width="2.0" x1="-36.64479713650224" x2="5.11311551687259" y1="26.268847494998774" y2="4.438338320150891"/><line fill="none" stroke="#e10000" stroke-linecap="round" stroke-width="2.0" x1="5.11311551687259" x2="52.0683819312199" y1="4.438338320150891" y2="6.488449526321682"/><line fill="none" stroke="#00e1e1" stroke-linecap="round" stroke-width="2.0" x1="52.0683819312199" x2="91.56255030291499" y1="6.488449526321682" y2="31.746023927443424"/><line fill="none" stroke="#66e133" stroke-linecap="round" stroke-width="2.0" x1="91.56255030291499" x2="113.00900347060156" y1="31.746023927443424" y2="73.29776572638883"/><line fill="none" stroke="#3399e1" stroke-linecap="round" stroke-width="2.0" x1="113.00900347060156" x2="110.73065020733415" y1="73.29776572638883" y2="119.88208397199332"/><line fill="none" stroke="#e10000" stroke-linecap="round" stroke-width="2.0" x1="110.73065020733415" x2="85.46217479562894" y1="119.88208397199332" y2="158.94120007013424"/><line fill="none" stroke="#00e1e1" stroke-linecap="round" stroke-width="2.0" x1="85.46217479562894" x2="44.11947207328866" y1="158.94120007013424" y2="180.0063592580492"/><line fill="none" stroke="#66e133" stroke-linecap="round" stroke-width="2.0" x1="44.11947207328866" x2="-2.0928050294084244" y1="180.0063592580492" y2="177.5035917931138"/><line fill="none" stroke="#3399e1" stroke-linecap="round" stroke-width="2.0" x1="-2.0928050294084244" x2="-40.71784573867409" y1="177.5035917931138" y2="152.22807339669765"/><line fill="none" stroke="#e10000" stroke-linecap="round" stroke-width="2.0" x1="-40.71784573867409" x2="-61.40449243494996" y1="152.22807339669765" y2="111.097254678084"/><line fill="none" stroke="#00e1e1" stroke-linecap="round" stroke-width="2.0" x1="-61.40449243494996" x2="-58.68114376034178" y1="111.097254678084" y2="65.25808177982469"/><line fill="none" stroke="#66e133" stroke-linecap="round" stroke-width="2.0" x1="-58.68114376034178" x2="-33.402429833049496" y1="65.25808177982469" y2="27.066111129148403"/><line fill="none" stroke="#3399e1" stroke-linecap="round" stroke-width="2.0" x1="-33.402429833049496" x2="7.513683374686899" y1="27.066111129148403" y2="6.755176143980936"/><line fill="none" stroke="#e10000" stroke-linecap="round" stroke-width="2.0" x1="7.513683374686899" x2="52.97871894316737" y1="6.755176143980936" y2="9.695268107985727"/><line fill="none" stroke="#00e1e1" stroke-linecap="round" stroke-width="2.0" x1="52.97871894316737" x2="90.73865322699282" y1="9.695268107985727" y2="34.973340876319604"/><line fill="none" stroke="#66e133" stroke-linecap="round" stroke-width="2.0" x1="90.73865322699282" x2="110.67669640486287" y1="34.973340876319604" y2="75.67195060979071"/><line fill="none" stroke="#3399e1" stroke-linecap="round" stroke-width="2.0" x1="110.67669640486287" x2="107.52370379162836" y1="75.67195060979071" y2="120.76184568153477"/><line fill="none" stroke="#e10000" stroke-linecap="round" stroke-width="2.0" x1="107.52370379162836" x2="82.2500979167174" y1="120.76184568153477" y2="158.0908055663168"/><line fill="none" stroke="#00e1e1" stroke-linecap="round" stroke-width="2.0" x1="82.2500979167174" x2="41.77176595447476" y1="158.0908055663168" y2="177.6587957940966"/><line fill="none" stroke="#66e133" stroke-linecap="round" stroke-width="2.0" x1="41.77176595447476" x2="-2.942015432791429" y1="177.6587957940966" y2="174.296749683204"/><line fill="none" stroke="#3399e1" stroke-linecap="round" stroke-width="2.0" x1="-2.942015432791429" x2="-39.84109107579677" y1="174.296749683204" y2="149.03142529004074"/><line fill="none" stroke="#e10000" stroke-linecap="round" stroke-width="2.0" x1="-39.84109107579677" x2="-59.0418859934467" y1="149.03142529004074" y2="108.77612160803693"/><line fill="none" stroke="#00e1e1" stroke-linecap="round" stroke-width="2.0" x1="-59.0418859934467" x2="-55.47463783929901" y1="108.77612160803693" y2="64.43939709430305"/><line fill="none" stroke="#66e133" stroke-linecap="round" stroke-width="2.0" x1="-55.47463783929901" x2="-30.221398179906714" y1="64.43939709430305" y2="27.96908743417955"/><line fill="none" stroke="#3399e1" stroke-linecap="round" stroke-width="2.0" x1="-30.221398179906714" x2="9.808150621190016" y1="27.96908743417955" y2="9.132611575340775"/><line fill="none" stroke="#e10000" stroke-linecap="round" stroke-width="2.0" x1="9.808150621190016" x2="53.766905089132806" y1="9.132611575340775" y2="12.901206224161475"/><line fill="none" stroke="#00e1e1" stroke-linecap="round" stroke-width="2.0" x1="53.766905089132806" x2="89.80959503784842" y1="12.901206224161475" y2="38.13856942360754"/><line fill="none" stroke="#66e133" stroke-linecap="round" stroke-width="2.0" x1="89.80959503784842" x2="108.28464652841389" y1="38.13856942360754" y2="77.93966077071705"/><line fill="none" stroke="#3399e1" stroke-linecap="round" stroke-width="2.0" x1="108.28464652841389" x2="104.31856481895898" y1="77.93966077071705" y2="121.51956205415192"/><line fill="none" stroke="#e10000" stroke-linecap="round" stroke-width="2.0" x1="104.31856481895898" x2="79.10085809086276" y1="121.51956205415192" y2="157.1358064852501"/><line fill="none" stroke="#00e1e1" stroke-linecap="round" stroke-width="2.0" x1="79.10085809086276" x2="39.5309026251343" y1="157.1358064852501" y2="175.2523465644227"/><line fill="none" stroke="#66e133" stroke-linecap="round" stroke-width="2.0" x1="39.5309026251343" x2="-3.669292384001267" y1="175.2523465644227" y2="171.09264090504493"/><line fill="none" stroke="#3399e1" stroke-linecap="round" stroke-width="2.0" x1="-3.669292384001267" x2="-38.8602933221166" y1="171.09264090504493" y2="145.89835875663738"/><line fill="none" stroke="#e10000" stroke-linecap="round" stroke-width="2.0" x1="-38.8602933221166" x2="-56.621253039513036" y1="145.89835875663738" y2="106.56219333705153"/><line fill="none" stroke="#00e1e1" stroke-linecap="round" stroke-width="2.0" x1="-56.621253039513036" x2="-52.27179000875896" y1="106.56219333705153" y2="63.742527629060476"/><line fill="none" stroke="#66e133" stroke-linecap="round" stroke-width="2.0" x1="-52.27179000875896" x2="-27.104688457658824" y1="63.742527629060476" y2="28.975540421126937"/><line fill="none" stroke="#3399e1" stroke-linecap="round" stroke-width="2.0" x1="-27.104688457658824" x2="11.995057129444533" y1="28.975540421126937" y2="11.567212097482745"/><line fill="none" stroke="#e10000" stroke-linecap="round" stroke-width="2.0" x1="11.995057129444533" x2="54.43340058504972" y1="11.567212097482745" y2="16.10256266211325"/><line fill="none" stroke="#00e1e1" stroke-linecap="round" stroke-width="2.0" x1="54.43340058504972" x2="88.7776314698899" y1="16.10256266211325" y2="41.23873987601735"/><line fill="none" stroke="#66e133" stroke-linecap="round" stroke-width="2.0" x1="88.7776314698899" x2="105.8362951111688" y1="41.23873987601735" y2="80.09946033734838"/><line fill="none" stroke="#3399e1" stroke-linecap="round" stroke-width="2.0" x1="105.8362951111688" x2="101.11892990019703" y1="80.09946033734838" y2="122.15571867622484"/><line fill="none" stroke="#e10000" stroke-linecap="round" stroke-width="2.0" x1="101.11892990019703" x2="76.01740829929035" y1="122.15571867622484" y2="156.07847819427138"/><line fill="none" stroke="#00e1e1" stroke-linecap="round" stroke-width="2.0" x1="76.01740829929035" x2="37.39829365050838" y1="156.07847819427138" y2="172.7904614321829"/><line fill="none" stroke="#66e133" stroke-linecap="round" stroke-width="2.0" x1="37.39829365050838" x2="-4.2751468041265" y1="172.7904614321829" y2="167.89495730349478"/><line fill="none" stroke="#3399e1" stroke-linecap="round" stroke-width="2.0" x1="-4.2751468041265" x2="-37.77774736462147" y1="167.89495730349478" y2="142.8318099416026"/><line fill="none" stroke="#e10000" stroke-linecap="round" stroke-width="2.0" x1="-37.77774736462147" x2="-54.14605186932198" y1="142.8318099416026" y2="104.45685707333965"/><line fill="none" stroke="#00e1e1" stroke-linecap="round" stroke-width="2.0" x1="-54.14605186932198" x2="-49.07628718366776" y1="104.45685707333965" y2="63.166937165060645"/><line fill="none" stroke="#66e133" stroke-linecap="round" stroke-width="2.0" x1="-49.07628718366776" x2="-24.05521985199336" y1="63.166937165060645" y2="30.083155797390205"/><line fill="none" stroke="#3399e1" stroke-linecap="round" stroke-width="2.0" x1="-24.05521985199336" x2="14.073040097707075" y1="30.083155797390205" y2="14.055511141731305"/><line fill="none" stroke="#e10000" stroke-linecap="round" stroke-width="2.0" x1="14.073040097707075" x2="54.9787669101199" y1="14.055511141731305" y2="19.295655600451095"/><line fill="none" stroke="#00e1e1" stroke-linecap="round" stroke-width="2.0" x1="54.9787669101199" x2="87.64509610653624" y1="19.295655600451095" y2="44.27095012987273"/><line fill="none" stroke="#66e133" stroke-linecap="round" stroke-width="2.0" x1="87.64509610653624" x2="103.33511683350484" y1="44.27095012987273" y2="82.15001096283554"/><line fill="none" stroke="#3399e1" stroke-linecap="round" stroke-width="2.0" x1="103.33511683350484" x2="97.92847559979357" y1="82.15001096283554" y2="122.67090224831857"/><line fill="none" stroke="#e10000" stroke-linecap="round" stroke-width="2.0" x1="97.92847559979357" x2="73.002633441819" y1="122.67090224831857" y2="154.92117345207342"/><line fill="none" stroke="#00e1e1" stroke-linecap="round" stroke-width="2.0" x1="73.002633441819" x2="35.37525287514076" y1="154.92117345207342" y2="170.27662302837584"/><line fill="none" stroke="#66e133" stroke-linecap="round" stroke-width="2.0" x1="35.37525287514076" x2="-4.760190575275516" y1="170.27662302837584" y2="164.70737002295056"/><line fill="none" stroke="#3399e1" stroke-linecap="round" stroke-width="2.0" x1="-4.760190575275516" x2="-36.595825020987036" y1="164.70737002295056" y2="139.83464641979387"/><line fill="none" stroke="#e10000" stroke-linecap="round" stroke-width="2.0" x1="-36.595825020987036" x2="-51.61977290314053" y1="139.83464641979387" y2="102.46140211274533"/><line fill="none" stroke="#00e1e1" stroke-linecap="round" stroke-width="2.0" x1="-51.61977290314053" x2="-45.89179492552708" y1="102.46140211274533" y2="62.71198867948853"/><line fill="none" stroke="#66e133" stroke-linecap="round" stroke-width="2.0" x1="-45.89179492552708" x2="-21.07584249244958" y1="62.71198867948853" y2="31.289542803343945"/><line fill="none" stroke="#3399e1" stroke-linecap="round" stroke-width="2.0" x1="-21.07584249244958" x2="16.040834824209462" y1="31.289542803343945" y2="16.594010660171694"/><line fill="none" stroke="#e10000" stroke-linecap="round" stroke-width="2.0" x1="16.040834824209462" x2="55.403666186013744" y1="16.594010660171694" y2="22.4768252231303"/><line fill="none" stroke="#00e1e1" stroke-linecap="round" stroke-width="2.0" x1="55.403666186013744" x2="86.41439853159241" y1="22.4768252231303" y2="47.23236762055883"/><line fill="none" stroke="#66e133" stroke-linecap="round" stroke-width="2.0" x1="86.41439853159241" x2="100.78461720910335" y1="47.23236762055883" y2="84.0900725838432"/><line fill="none" stroke="#3399e1" stroke-linecap="round" stroke-width="2.0" x1="100.78461720910335" x2="94.75085582606077" y1="84.0900725838432" y2="123.06579994809523"/><line fill="none" stroke="#e10000" stroke-linecap="round" stroke-width="2.0" x1="94.75085582606077" x2="70.05934839928872" y1="123.06579994809523" y2="153.66632054813832"/><line fill="none" stroke="#00e1e1" stroke-linecap="round" stroke-width="2.0" x1="70.05934839928872" x2="33.46299568059837" y1="153.66632054813832" y2="167.71434417031398"/><line fill="none" stroke="#66e133" stroke-linecap="round" stroke-width="2.0" x1="33.46299568059837" x2="-5.125135887227252" y1="167.71434417031398" y2="161.53352690200865"/><line fill="none" stroke="#3399e1" stroke-linecap="round" stroke-width="2.0" x1="-5.125135887227252" x2="-35.31697316714204" y1="161.53352690200865" y2="136.90966527018597"/><line fill="none" stroke="#e10000" stroke-linecap="round" stroke-width="2.0" x1="-35.31697316714204" x2="-49.04593609952829" y1="136.90966527018597" y2="100.57701911275386"/><line fill="none" stroke="#00e1e1" stroke-linecap="round" stroke-width="2.0" x1="-49.04593609952829" x2="-42.721954841532565" y1="100.57701911275386" y2="62.376945015332"/><line fill="none" stroke="#66e133" stroke-linecap="round" stroke-width="2.0" x1="-42.721954841532565" x2="-18.169335538810774" y1="62.376945015332" y2="32.592236096566054"/><line fill="none" stroke="#3399e1" stroke-linecap="round" stroke-width="2.0" x1="-18.169335538810774" x2="17.897275416837278" y1="32.592236096566054" y2="19.179183715622706"/><line fill="none" stroke="#e10000" stroke-linecap="round" stroke-width="2.0" x1="17.897275416837278" x2="55.7088604910857" y1="19.179183715622706" y2="25.642436315736326"/><line fill="none" stroke="#00e1e1" stroke-linecap="round" stroke-width="2.0" x1="55.7088604910857" x2="85.08802243330197" y1="25.642436315736326" y2="50.120231224041135"/><line fill="none" stroke="#66e133" stroke-linecap="round" stroke-width="2.0" x1="85.08802243330197" x2="98.18832999090554" y1="50.120231224041135" y2="85.91850411389152"/><line fill="none" stroke="#3399e1" stroke-linecap="round" stroke-width="2.0" x1="98.18832999090554" x2="91.58969923956207" y1="85.91850411389152" y2="123.34119872835542"/><line fill="none" stroke="#e10000" stroke-linecap="round" stroke-width="2.0" x1="91.58969923956207" x2="67.19029614420063" y1="123.34119872835542" y2="152.31642139514557"/><line fill="none" stroke="#00e1e1" stroke-linecap="round" stroke-width="2.0" x1="67.19029614420063" x2="31.662638308489015" y1="152.31642139514557" y2="165.10716526360767"/><line fill="none" stroke="#66e133" stroke-linecap="round" stroke-width="2.0" x1="31.662638308489015" x2="-5.370794519329493" y1="165.10716526360767" y2="158.37704988662813"/><line fill="none" stroke="#3399e1" stroke-linecap="round" stroke-width="2.0" x1="-5.370794519329493" x2="-33.94371181810779" y1="158.37704988662813" y2="134.05959119873935"/><line fill="none" stroke="#e10000" stroke-linecap="round" stroke-width="2.0" x1="-33.94371181810779" x2="-46.42808835345071" y1="134.05959119873935" y2="98.80479943189181"/><line fill="none" stroke="#00e1e1" stroke-linecap="round" stroke-width="2.0" x1="-46.42808835345071" x2="-39.57038200260837" y1="98.80479943189181" y2="62.16096961559642"/><line fill="none" stroke="#66e133" stroke-linecap="round" stroke-width="2.0" x1="-39.57038200260837" x2="-15.33840531627088" y1="62.16096961559642" y2="33.98869768249173"/><line fill="none" stroke="#3399e1" stroke-linecap="round" stroke-width="2.0" x1="-15.33840531627088" x2="19.64129543732549" y1="33.98869768249173" y2="21.80747708729472"/><line fill="none" stroke="#e10000" stroke-linecap="round" stroke-width="2.0" x1="19.64129543732549" x2="55.89521111007819" y1="21.80747708729472" y2="28.788880842481642"/><line fill="none" stroke="#00e1e1" stroke-linecap="round" stroke-width="2.0" x1="55.89521111007819" x2="83.66852366227613" y1="28.788880842481642" y2="52.93185310933243"/><line fill="none" stroke="#66e133" stroke-linecap="round" stroke-width="2.0" x1="83.66852366227613" x2="95.54981456178413" y1="52.93185310933243" y2="87.63426407112686"/><line fill="none" stroke="#3399e1" stroke-linecap="round" stroke-width="2.0" x1="95.54981456178413" x2="88.44860668118181" y1="87.63426407112686" y2="123.4979845506933"/><line fill="none" stroke="#e10000" stroke-linecap="round" stroke-width="2.0" x1="88.44860668118181" x2="64.39814590068517" y1="123.4979845506933" y2="150.87404957556117"/><line fill="none" stroke="#00e1e1" stroke-linecap="round" stroke-width="2.0" x1="64.39814590068517" x2="29.97519724913694" y1="150.87404957556117" y2="162.45865168926696"/><line fill="none" stroke="#66e133" stroke-linecap="round" stroke-width="2.0" x1="29.97519724913694" x2="-5.498077058137099" y1="162.45865168926696" y2="155.24153246336428"/><line fill="none" stroke="#3399e1" stroke-linecap="round" stroke-width="2.0" x1="-5.498077058137099" x2="-32.478632163324065" y1="155.24153246336428" y2="131.28707471087128"/><line fill="none" stroke="#e10000" stroke-linecap="round" stroke-width="2.0" x1="-32.478632163324065" x2="-43.76980087991183" y1="131.28707471087128" y2="97.14573453486834"/><line fill="none" stroke="#00e1e1" stroke-linecap="round" stroke-width="2.0" x1="-43.76980087991183" x2="-36.440662381901916" y1="97.14573453486834" y2="62.06312732164954"/><line fill="none" stroke="#66e133" stroke-linecap="round" stroke-width="2.0" x1="-36.440662381901916" x2="-12.585683500476001" y1="62.06312732164954" y2="35.47631889027278"/><line fill="none" stroke="#3399e1" stroke-linecap="round" stroke-width="2.0" x1="-12.585683500476001" x2="21.271928479631548" y1="35.47631889027278" y2="24.475313890524774"/><line fill="none" stroke="#e10000" stroke-linecap="round" stroke-width="2.0" x1="21.271928479631548" x2="55.963677719826904" y1="24.475313890524774" y2="31.912580502352522"/><line fill="none" stroke="#00e1e1" stroke-linecap="round" stroke-width="2.0" x1="55.963677719826904" x2="82.15852824452631" y1="31.912580502352522" y2="55.664620540813594"/><line fill="none" stroke="#66e133" stroke-linecap="round" stroke-width="2.0" x1="82.15852824452631" x2="92.87265331154046" y1="55.664620540813594" y2="89.23641114019006"/><line fill="none" stroke="#3399e1" stroke-linecap="round" stroke-width="2.0" x1="92.87265331154046" x2="85.33114862143304" y1="89.23641114019006" y2="123.53714155528604"/><line fill="none" stroke="#e10000" stroke-linecap="round" stroke-width="2.0" x1="85.33114862143304" x2="61.68549135488479" y1="123.53714155528604" y2="149.34184834364032"/><line fill="none" stroke="#00e1e1" stroke-linecap="round" stroke-width="2.0" x1="61.68549135488479" x2="28.401588696236956" y1="149.34184834364032" y2="159.77239117753248"/><line fill="none" stroke="#66e133" stroke-linecap="round" stroke-width="2.0" x1="28.401588696236956" x2="-5.5079920513210325" y1="159.77239117753248" y2="152.1305371142277"/><line fill="none" stroke="#3399e1" stroke-linecap="round" stroke-width="2.0" x1="-5.5079920513210325" x2="-30.924394557700605" y1="152.1305371142277" y2="128.59469033460863"/><line fill="none" stroke="#e10000" stroke-linecap="round" stroke-width="2.0" x1="-30.924394557700605" x2="-41.07466658471961" y1="128.59469033460863" y2="95.60071546377017"/><line fill="none" stroke="#00e1e1" stroke-linecap="round" stroke-width="2.0" x1="-41.07466658471961" x2="-33.33635031529049" y1="95.60071546377017" y2="62.082385235158064"/><line fill="none" stroke="#66e133" stroke-linecap="round" stroke-width="2.0" x1="-33.33635031529049" x2="-9.913725353512543" y1="62.082385235158064" y2="37.05242239259874"/><line fill="none" stroke="#3399e1" stroke-linecap="round" stroke-width="2.0" x1="-9.913725353512543" x2="22.788308682182976" y1="37.05242239259874" y2="27.17909620897573"/><line fill="none" stroke="#e10000" stroke-linecap="round" stroke-width="2.0" x1="22.788308682182976" x2="55.915317511515084" y1="27.17909620897573" y2="35.00998926285897"/><line fill="none" stroke="#00e1e1" stroke-linecap="round" stroke-width="2.0" x1="55.915317511515084" x2="80.56073035085052" y1="35.00998926285897" y2="58.31599762934516"/><line fill="none" stroke="#66e133" stroke-linecap="round" stroke-width="2.0" x1="80.56073035085052" x2="90.16044900184296" y1="58.31599762934516" y2="90.7241046678902"/><line fill="none" stroke="#3399e1" stroke-linecap="round" stroke-width="2.0" x1="90.16044900184296" x2="82.24086263254756" y1="90.7241046678902" y2="123.45975116737566"/><line fill="none" stroke="#e10000" stroke-linecap="round" stroke-width="2.0" x1="82.24086263254756" x2="59.05484891680803" y1="123.45975116737566" y2="147.7225285841007"/><line fill="none" stroke="#00e1e1" stroke-linecap="round" stroke-width="2.0" x1="59.05484891680803" x2="26.94262806777094" y1="147.7225285841007" y2="157.0519911700524"/><line fill="none" stroke="#66e133" stroke-linecap="round" stroke-width="2.0" x1="26.94262806777094" x2="-5.401645098414406" y1="157.0519911700524" y2="149.04759279470977"/><line fill="none" stroke="#3399e1" stroke-linecap="round" stroke-width="2.0" x1="-5.401645098414406" x2="-29.28372646965756" y1="149.04759279470977" y2="125.9849348954709"/><line fill="none" stroke="#e10000" stroke-linecap="round" stroke-width="2.0" x1="-29.28372646965756" x2="-38.34629742400308" y1="125.9849348954709" y2="94.17053237558288"/><line fill="none" stroke="#00e1e1" stroke-linecap="round" stroke-width="2.0" x1="-38.34629742400308" x2="-30.260965985437572" y1="94.17053237558288" y2="62.21761364303907"/><line fill="none" stroke="#66e133" stroke-linecap="round" stroke-width="2.0" x1="-30.260965985437572" x2="-7.32500801188317" y1="62.21761364303907" y2="38.71426426820845"/><line fill="none" stroke="#3399e1" stroke-linecap="round" stroke-width="2.0" x1="-7.32500801188317" x2="24.189671173736322" y1="38.71426426820845" y2="29.9152077376771"/><line fill="none" stroke="#e10000" stroke-linecap="round" stroke-width="2.0" x1="24.189671173736322" x2="55.75128425006267" y1="29.9152077376771" y2="38.077595869852075"/><line fill="none" stroke="#00e1e1" stroke-linecap="round" stroke-width="2.0" x1="55.75128425006267" x2="78.87789022385017" y1="38.077595869852075" y2="60.88352703113513"/><line fill="none" stroke="#66e133" stroke-linecap="round" stroke-width="2.0" x1="78.87789022385017" x2="87.41682212072949" y1="60.88352703113513" y2="92.0966050924296"/><line fill="none" stroke="#3399e1" stroke-linecap="round" stroke-width="2.0" x1="87.41682212072949" x2="79.18125088487942" y1="92.0966050924296" y2="123.26699114103741"/><line fill="none" stroke="#e10000" stroke-linecap="round" stroke-width="2.0" x1="79.18125088487942" x2="56.50865603468" y1="123.26699114103741" y2="146.0188667287492"/><line fill="none" stroke="#00e1e1" stroke-linecap="round" stroke-width="2.0" x1="56.50865603468" x2="25.59902959342969" y1="146.0188667287492" y2="154.30107617202972"/><line fill="none" stroke="#66e133" stroke-linecap="round" stroke-width="2.0" x1="25.59902959342969" x2="-5.180237879000039" y1="154.30107617202972" y2="145.9961924365019"/><line fill="none" stroke="#3399e1" stroke-linecap="round" stroke-width="2.0" x1="-5.180237879000039" x2="-27.55942038744374" y1="145.9961924365019" y2="123.46022584410181"/><line fill="none" stroke="#e10000" stroke-linecap="round" stroke-width="2.0" x1="-27.55942038744374" x2="-35.58832175410684" y1="123.46022584410181" y2="92.85587414627295"/><line fill="none" stroke="#00e1e1" stroke-linecap="round" stroke-width="2.0" x1="-35.58832175410684" x2="-27.217992930922442" y1="92.85587414627295" y2="62.46758700481377"/><line fill="none" stroke="#66e133" stroke-linecap="round" stroke-width="2.0" x1="-27.217992930922442" x2="-4.8219288274809635" y1="62.46758700481377" y2="40.459036105798525"/><line fill="none" stroke="#3399e1" stroke-linecap="round" stroke-width="2.0" x1="-4.8219288274809635" x2="25.475352452622733" y1="40.459036105798525" y2="32.68001643528202"/><line fill="none" stroke="#e10000" stroke-linecap="round" stroke-width="2.0" x1="25.475352452622733" x2="55.47282727127184" y1="32.68001643528202" y2="41.11192633189012"/><line fill="none" stroke="#00e1e1" stroke-linecap="round" stroke-width="2.0" x1="55.47282727127184" x2="77.11283206387745" y1="41.11192633189012" y2="63.364831593361274"/><line fill="none" stroke="#66e133" stroke-linecap="round" stroke-width="2.0" x1="77.11283206387745" x2="84.64540822830111" y1="63.364831593361274" y2="93.35327430596575"/><line fill="none" stroke="#3399e1" stroke-linecap="round" stroke-width="2.0" x1="84.64540822830111" x2="76.15577766913734" y1="93.35327430596575" y2="122.960134540866"/><line fill="none" stroke="#e10000" stroke-linecap="round" stroke-width="2.0" x1="76.15577766913734" x2="54.04926956278462" y1="122.960134540866" y2="144.23370263236785"/><line fill="none" stroke="#00e1e1" stroke-linecap="round" stroke-width="2.0" x1="54.04926956278462" x2="24.371405968746036" y1="144.23370263236785" y2="151.52328509596913"/><line fill="none" stroke="#66e133" stroke-linecap="round" stroke-width="2.0" x1="24.371405968746036" x2="-4.845067118978665" y1="151.52328509596913" y2="142.97979047642016"/><line fill="none" stroke="#3399e1" stroke-linecap="round" stroke-width="2.0" x1="-4.845067118978665" x2="-25.754331685044086" y1="142.97979047642016" y2="121.02289963763597"/><line fill="none" stroke="#e10000" stroke-linecap="round" stroke-width="2.0" x1="-25.754331685044086" x2="-32.804381673492266" y1="121.02289963763597" y2="91.65732804162603"/><line fill="none" stroke="#00e1e1" stroke-linecap="round" stroke-width="2.0" x1="-32.804381673492266" x2="-24.210875581950468" y1="91.65732804162603" y2="62.830985001714815"/><line fill="none" stroke="#66e133" stroke-linecap="round" stroke-width="2.0" x1="-24.210875581950468" x2="-2.406803762540271" y1="62.830985001714815" y2="42.283867148010714"/><line fill="none" stroke="#3399e1" stroke-linecap="round" stroke-width="2.0" x1="-2.406803762540271" x2="26.644790699194928" y1="42.283867148010714" y2="35.46987718390891"/><line fill="none" stroke="#e10000" stroke-linecap="round" stroke-width="2.0" x1="26.644790699194928" x2="55.081290417387024" y1="35.46987718390891" y2="44.10954637764917"/><line fill="none" stroke="#00e1e1" stroke-linecap="round" stroke-width="2.0" x1="55.081290417387024" x2="75.26844187523687" y1="44.10954637764917" y2="65.75761594557679"/><line fill="none" stroke="#66e133" stroke-linecap="round" stroke-width="2.0" x1="75.26844187523687" x2="81.84985529523955" y1="65.75761594557679" y2="94.4935759503341"/><line fill="none" stroke="#3399e1" stroke-linecap="round" stroke-width="2.0" x1="81.84985529523955" x2="73.16786694594614" y1="94.4935759503341" y2="122.54054866224611"/><line fill="none" stroke="#e10000" stroke-linecap="round" stroke-width="2.0" x1="73.16786694594614" x2="51.67896418376115" y1="122.54054866224611" y2="142.3699374091884"/><line fill="none" stroke="#00e1e1" stroke-linecap="round" stroke-width="2.0" x1="51.67896418376115" x2="23.26026807610474" y1="142.3699374091884" y2="148.72226859865555"/><line fill="none" stroke="#66e133" stroke-linecap="round" stroke-width="2.0" x1="23.26026807610474" x2="-4.397523495593827" y1="148.72226859865555" y2="140.00180041303145"/><line fill="none" stroke="#3399e1" stroke-linecap="round" stroke-width="2.0" x1="-4.397523495593827" x2="-23.87137644901165" y1="140.00180041303145" y2="118.67521017575577"/><line fill="none" stroke="#e10000" stroke-linecap="round" stroke-width="2.0" x1="-23.87137644901165" x2="-29.9981303582798" y1="118.67521017575577" y2="90.5753794549975"/><line fill="none" stroke="#00e1e1" stroke-linecap="round" stroke-width="2.0" x1="-29.9981303582798" x2="-21.24301682413626" y1="90.5753794549975" y2="63.306393646862674"/><line fill="none" stroke="#66e133" stroke-linecap="round" stroke-width="2.0" x1="-21.24301682413626" x2="-0.08186583951152215" y1="63.306393646862674" y2="44.18582647415784"/><line fill="none" stroke="#3399e1" stroke-linecap="round" stroke-width="2.0" x1="-0.08186583951152215" x2="27.697526021328635" y1="44.18582647415784" y2="38.28113445493366"/><line fill="none" stroke="#e10000" stroke-linecap="round" stroke-width="2.0" x1="27.697526021328635" x2="54.57811091176234" y1="38.28113445493366" y2="47.06706388489094"/><line fill="none" stroke="#00e1e1" stroke-linecap="round" stroke-width="2.0" x1="54.57811091176234" x2="73.3476652739868" y1="47.06706388489094" y2="68.0596680359605"/><line fill="none" stroke="#66e133" stroke-linecap="round" stroke-width="2.0" x1="73.3476652739868" x2="79.03382103578323" y1="68.0596680359605" y2="95.51707564579489"/><line fill="none" stroke="#3399e1" stroke-linecap="round" stroke-width="2.0" x1="79.03382103578323" x2="70.22089992421994" y1="95.51707564579489" y2="122.0096938909092"/><line fill="none" stroke="#e10000" stroke-linecap="round" stroke-width="2.0" x1="70.22089992421994" x2="49.39993088628552" y1="122.0096938909092" y2="140.4305312313066"/><line fill="none" stroke="#00e1e1" stroke-linecap="round" stroke-width="2.0" x1="49.39993088628552" x2="22.266024772756186" y1="140.4305312313066" y2="145.90168641300062"/><line fill="none" stroke="#66e133" stroke-linecap="round" stroke-width="2.0" x1="22.266024772756186" x2="-3.8390904819243374" y1="145.90168641300062" y2="137.0655923924592"/><line fill="none" stroke="#3399e1" stroke-linecap="round" stroke-width="2.0" x1="-3.8390904819243374" x2="-21.913529267580802" y1="137.0655923924592" y2="116.41932729236036"/><line fill="none" stroke="#e10000" stroke-linecap="round" stroke-width="2.0" x1="-21.913529267580802" x2="-27.173229393068407" y1="116.41932729236036" y2="89.61041171209216"/><line fill="none" stroke="#00e1e1" stroke-linecap="round" stroke-width="2.0" x1="-27.173229393068407" x2="-18.31777559183355" y1="89.61041171209216" y2="63.89230645579078"/><line fill="none" stroke="#66e133" stroke-linecap="round" stroke-width="2.0" x1="-18.31777559183355" x2="2.150736353226282" y1="63.89230645579078" y2="46.16192522032536"/><line fill="none" stroke="#3399e1" stroke-linecap="round" stroke-width="2.0" x1="2.150736353226282" x2="28.63320063287179" y1="46.16192522032536" y2="41.110124979094415"/><line fill="none" stroke="#e10000" stroke-linecap="round" stroke-width="2.0" x1="28.63320063287179" x2="53.96481817336563" y1="41.110124979094415" y2="49.98113127951752"/><line fill="none" stroke="#00e1e1" stroke-linecap="round" stroke-width="2.0" x1="53.96481817336563" x2="71.35350525870902" y1="49.98113127951752" y2="70.26886061150569"/><line fill="none" stroke="#66e133" stroke-linecap="round" stroke-width="2.0" x1="71.35350525870902" x2="76.20097023679995" y1="70.26886061150569" y2="96.42344115270694"/><line fill="none" stroke="#3399e1" stroke-linecap="round" stroke-width="2.0" x1="76.20097023679995" x2="67.318212669813" y1="96.42344115270694" y2="121.36912250251451"/><line fill="none" stroke="#e10000" stroke-linecap="round" stroke-width="2.0" x1="67.318212669813" x2="47.2142754990345" y1="121.36912250251451" y2="138.41850109041007"/><line fill="none" stroke="#00e1e1" stroke-linecap="round" stroke-width="2.0" x1="47.2142754990345" x2="21.388982745921535" y1="138.41850109041007" y2="143.06520467639575"/><line fill="none" stroke="#66e133" stroke-linecap="round" stroke-width="2.0" x1="21.388982745921535" x2="-3.171343131590554" y1="143.06520467639575" y2="134.17449082483068"/><line fill="none" stroke="#3399e1" stroke-linecap="round" stroke-width="2.0" x1="-3.171343131590554" x2="-19.88382098344043" y1="134.17449082483068" y2="114.25733530373711"/><line fill="none" stroke="#e10000" stroke-linecap="round" stroke-width="2.0" x1="-19.88382098344043" x2="-24.33334609867135" y1="114.25733530373711" y2="88.76270594285151"/><line fill="none" stroke="#00e1e1" stroke-linecap="round" stroke-width="2.0" x1="-24.33334609867135" x2="-15.438464492468903" y1="88.76270594285151" y2="64.5871256765654"/><line fill="none" stroke="#66e133" stroke-linecap="round" stroke-width="2.0" x1="-15.438464492468903" x2="4.288940098933626" y1="64.5871256765654" y2="48.20911883546563"/><line fill="none" stroke="#3399e1" stroke-linecap="round" stroke-width="2.0" x1="4.288940098933626" x2="29.451558964972953" y1="48.20911883546563" y2="43.9531804192709"/><line fill="none" stroke="#e10000" stroke-linecap="round" stroke-width="2.0" x1="29.451558964972953" x2="53.24303257188219" y1="43.9531804192709" y2="52.84844790326157"/><line fill="none" stroke="#00e1e1" stroke-linecap="round" stroke-width="2.0" x1="53.24303257188219" x2="69.28901994563536" y1="52.84844790326157" y2="72.38315264127475"/><line fill="none" stroke="#66e133" stroke-linecap="round" stroke-width="2.0" x1="69.28901994563536" x2="73.35497208459573" y1="72.38315264127475" y2="97.21244246607006"/><line fill="none" stroke="#3399e1" stroke-linecap="round" stroke-width="2.0" x1="73.35497208459573" x2="64.46309374589579" y1="97.21244246607006" y2="120.62047740302619"/><line fill="none" stroke="#e10000" stroke-linecap="round" stroke-width="2.0" x1="64.46309374589579" x2="45.124017281797336" y1="120.62047740302619" y2="136.33691852421367"/><line fill="none" stroke="#00e1e1" stroke-linecap="round" stroke-width="2.0" x1="45.124017281797336" x2="20.62934643503789" y1="136.33691852421367" y2="140.2164932572112"/><line fill="none" stroke="#66e133" stroke-linecap="round" stroke-width="2.0" x1="20.62934643503789" x2="-2.3959468044551073" y1="140.2164932572112" y2="131.33177203280815"/><line fill="none" stroke="#3399e1" stroke-linecap="round" stroke-width="2.0" x1="-2.3959468044551073" x2="-17.785336411566092" y1="131.33177203280815" y2="112.19123161409101"/><line fill="none" stroke="#e10000" stroke-linecap="round" stroke-width="2.0" x1="-17.785336411566092" x2="-21.482150858407923" y1="112.19123161409101" y2="88.03244102048676"/><line fill="none" stroke="#00e1e1" stroke-linecap="round" stroke-width="2.0" x1="-21.482150858407923" x2="-12.608347463316822" y1="88.03244102048676" y2="65.38916357871015"/><line fill="none" stroke="#66e133" stroke-linecap="round" stroke-width="2.0" x1="-12.608347463316822" x2="6.330769932511721" y1="65.38916357871015" y2="50.324309372079924"/><line fill="none" stroke="#3399e1" stroke-linecap="round" stroke-width="2.0" x1="6.330769932511721" x2="30.152447710260507" y1="50.324309372079924" y2="46.80663004429726"/><line fill="none" stroke="#e10000" stroke-linecap="round" stroke-width="2.0" x1="30.152447710260507" x2="52.41446412421641" y1="46.80663004429726" y2="55.6657623485784"/><line fill="none" stroke="#00e1e1" stroke-linecap="round" stroke-width="2.0" x1="52.41446412421641" x2="67.15732026954034" y1="55.6657623485784" y2="74.4005906818801"/><line fill="none" stroke="#66e133" stroke-linecap="round" stroke-width="2.0" x1="67.15732026954034" x2="70.49949749109959" y1="74.4005906818801" y2="97.88395184291687"/><line fill="none" stroke="#3399e1" stroke-linecap="round" stroke-width="2.0" x1="70.49949749109959" x2="61.65878188648388" y1="97.88395184291687" y2="119.76549081069297"/><line fill="none" stroke="#e10000" stroke-linecap="round" stroke-width="2.0" x1="61.65878188648388" x2="43.13108757456522" y1="119.76549081069297" y2="134.18890730901597"/><line fill="none" stroke="#00e1e1" stroke-linecap="round" stroke-width="2.0" x1="43.13108757456522" x2="19.987218021152273" y1="134.18890730901597" y2="137.35922308108113"/><line fill="none" stroke="#66e133" stroke-linecap="round" stroke-width="2.0" x1="19.987218021152273" x2="-1.5146558341332188" y1="137.35922308108113" y2="128.54066193362686"/><line fill="none" stroke="#3399e1" stroke-linecap="round" stroke-width="2.0" x1="-1.5146558341332188" x2="-15.621212023530356" y1="128.54066193362686" y2="110.22292537925473"/><line fill="none" stroke="#e10000" stroke-linecap="round" stroke-width="2.0" x1="-15.621212023530356" x2="-18.62331444459133" y1="110.22292537925473" y2="87.41969356765708"/><line fill="none" stroke="#00e1e1" stroke-linecap="round" stroke-width="2.0" x1="-18.62331444459133" x2="-9.830637462134826" y1="87.41969356765708" y2="66.29664380011216"/><line fill="none" stroke="#66e133" stroke-linecap="round" stroke-width="2.0" x1="-9.830637462134826" x2="8.274338962122728" y1="66.29664380011216" y2="52.50434781006476"/><line fill="none" stroke="#3399e1" stroke-linecap="round" stroke-width="2.0" x1="8.274338962122728" x2="30.73581579988253" y1="52.50434781006476" y2="49.66680340216912"/><line fill="none" stroke="#e10000" stroke-linecap="round" stroke-width="2.0" x1="30.73581579988253" x2="51.480911133222484" y1="49.66680340216912" y2="58.429874759326765"/><line fill="none" stroke="#00e1e1" stroke-linecap="round" stroke-width="2.0" x1="51.480911133222484" x2="64.96156765182819" y1="58.429874759326765" y2="76.31931018438624"/><line fill="none" stroke="#66e133" stroke-linecap="round" stroke-width="2.0" x1="64.96156765182819" x2="67.63821642106392" y1="76.31931018438624" y2="98.4379437625743"/><line fill="none" stroke="#3399e1" stroke-linecap="round" stroke-width="2.0" x1="67.63821642106392" x2="58.908463704528245" y1="98.4379437625743" y2="118.80598288047021"/><line fill="none" stroke="#e10000" stroke-linecap="round" stroke-width="2.0" x1="58.908463704528245" x2="41.23732850539579" y1="118.80598288047021" y2="131.97764111981053"/><line fill="none" stroke="#00e1e1" stroke-linecap="round" stroke-width="2.0" x1="41.23732850539579" x2="19.462597483435083" y1="131.97764111981053" y2="134.49706345861395"/><line fill="none" stroke="#66e133" stroke-linecap="round" stroke-width="2.0" x1="19.462597483435083" x2="-0.5293121381605275" y1="134.49706345861395" y2="125.80433375604339"/><line fill="none" stroke="#3399e1" stroke-linecap="round" stroke-width="2.0" x1="-0.5293121381605275" x2="-13.394633599728598" y1="125.80433375604339" y2="108.35423622936705"/><line fill="none" stroke="#e10000" stroke-linecap="round" stroke-width="2.0" x1="-13.394633599728598" x2="-15.760505346851321" y1="108.35423622936705" y2="86.92443802975336"/><line fill="none" stroke="#00e1e1" stroke-linecap="round" stroke-width="2.0" x1="-15.760505346851321" x2="-7.108494193055888" y1="86.92443802975336" y2="67.30770275105321"/><line fill="none" stroke="#66e133" stroke-linecap="round" stroke-width="2.0" x1="-7.108494193055888" x2="10.117850131650242" y1="67.30770275105321" y2="54.74603641228014"/><line fill="none" stroke="#3399e1" stroke-linecap="round" stroke-width="2.0" x1="10.117850131650242" x2="31.20171431345765" y1="54.74603641228014" y2="52.5300329910061"/><line fill="none" stroke="#e10000" stroke-linecap="round" stroke-width="2.0" x1="31.20171431345765" x2="50.444258769530094" y1="52.5300329910061" y2="61.13763909584589"/><line fill="none" stroke="#00e1e1" stroke-linecap="round" stroke-width="2.0" x1="50.444258769530094" x2="62.70497163726195" y1="61.13763909584589" y2="78.13753674186229"/><line fill="none" stroke="#66e133" stroke-linecap="round" stroke-width="2.0" x1="62.70497163726195" x2="64.77479522191916" y1="78.13753674186229" y2="98.87449481985425"/><line fill="none" stroke="#3399e1" stroke-linecap="round" stroke-width="2.0" x1="64.77479522191916" x2="56.21527143595446" y1="98.87449481985425" y2="117.74386027175814"/><line fill="none" stroke="#e10000" stroke-linecap="round" stroke-width="2.0" x1="56.21527143595446" x2="39.44449175781418" y1="117.74386027175814" y2="129.7063411594033"/><line fill="none" stroke="#00e1e1" stroke-linecap="round" stroke-width="2.0" x1="39.44449175781418" x2="19.055382722743094" y1="129.7063411594033" y2="131.63367941616627"/><line fill="none" stroke="#66e133" stroke-linecap="round" stroke-width="2.0" x1="19.055382722743094" x2="0.5581562282991435" y1="131.63367941616627" y2="123.12590579357617"/><line fill="none" stroke="#3399e1" stroke-linecap="round" stroke-width="2.0" x1="0.5581562282991435" x2="-11.108833850977287" y1="123.12590579357617" y2="106.58689305127305"/><line fill="none" stroke="#e10000" stroke-linecap="round" stroke-width="2.0" x1="-11.108833850977287" x2="-12.897387103929876" y1="106.58689305127305" y2="86.54654681520836"/><line fill="none" stroke="#00e1e1" stroke-linecap="round" stroke-width="2.0" x1="-12.897387103929876" x2="-4.445021869115703" y1="86.54654681520836" y2="68.42039107447548"/><line fill="none" stroke="#66e133" stroke-linecap="round" stroke-width="2.0" x1="-4.445021869115703" x2="11.859597423254993" y1="68.42039107447548" y2="57.046131110378795"/><line fill="none" stroke="#3399e1" stroke-linecap="round" stroke-width="2.0" x1="11.859597423254993" x2="31.550296322025197" y1="57.046131110378795" y2="55.39265692613245"/><line fill="none" stroke="#e10000" stroke-linecap="round" stroke-width="2.0" x1="31.550296322025197" x2="49.30647759736277" y1="55.39265692613245" y2="63.785965363057095"/><line fill="none" stroke="#00e1e1" stroke-linecap="round" stroke-width="2.0" x1="49.30647759736277" x2="60.39078750079912" y1="63.785965363057095" y2="79.85358727684951"/><line fill="none" stroke="#66e133" stroke-linecap="round" stroke-width="2.0" x1="60.39078750079912" x2="61.9128939579191" y1="79.85358727684951" y2="99.19378355127219"/><line fill="none" stroke="#3399e1" stroke-linecap="round" stroke-width="2.0" x1="61.9128939579191" x2="53.5822807210167" y1="99.19378355127219" y2="116.58111466036267"/><line fill="none" stroke="#e10000" stroke-linecap="round" stroke-width="2.0" x1="53.5822807210167" x2="37.75423739847776" y1="116.58111466036267" y2="127.37827375800636"/><line fill="none" stroke="#00e1e1" stroke-linecap="round" stroke-width="2.0" x1="37.75423739847776" x2="18.765369752124087" y1="127.37827375800636" y2="128.77272903131626"/><line fill="none" stroke="#66e133" stroke-linecap="round" stroke-width="2.0" x1="18.765369752124087" x2="1.745736574292188" y1="128.77272903131626" y2="120.50843919539915"/><line fill="none" stroke="#3399e1" stroke-linecap="round" stroke-width="2.0" x1="1.745736574292188" x2="-8.767090010957665" y1="120.50843919539915" y2="104.92253283136426"/><line fill="none" stroke="#e10000" stroke-linecap="round" stroke-width="2.0" x1="-8.767090010957665" x2="-10.037615640584288" y1="104.92253283136426" y2="86.28579050271517"/><line fill="none" stroke="#00e1e1" stroke-linecap="round" stroke-width="2.0" x1="-10.037615640584288" x2="-1.843267012769319" y1="86.28579050271517" y2="69.63267516155975"/><line fill="none" stroke="#66e133" stroke-linecap="round" stroke-width="2.0" x1="-1.843267012769319" x2="13.497966999316876" y1="69.63267516155975" y2="59.40134391941883"/><line fill="none" stroke="#3399e1" stroke-linecap="round" stroke-width="2.0" x1="13.497966999316876" x2="31.7818166641228" y1="59.40134391941883" y2="58.251021601642016"/><line fill="none" stroke="#e10000" stroke-linecap="round" stroke-width="2.0" x1="31.7818166641228" x2="48.069622045279544" y1="58.251021601642016" y2="66.37182180024071"/><line fill="none" stroke="#00e1e1" stroke-linecap="round" stroke-width="2.0" x1="48.069622045279544" x2="58.022313826016074" y1="66.37182180024071" y2="81.4658711680432"/><line fill="none" stroke="#66e133" stroke-linecap="round" stroke-width="2.0" x1="58.022313826016074" x2="59.05616375020969" y1="81.4658711680432" y2="99.39609019443112"/><line fill="none" stroke="#3399e1" stroke-linecap="round" stroke-width="2.0" x1="59.05616375020969" x2="51.01250842431007" y1="99.39609019443112" y2="115.31982119561692"/><line fill="none" stroke="#e10000" stroke-linecap="round" stroke-width="2.0" x1="51.01250842431007" x2="36.168132765795804" y1="115.31982119561692" y2="124.99674794479242"/><line fill="none" stroke="#00e1e1" stroke-linecap="round" stroke-width="2.0" x1="36.168132765795804" x2="18.592252954115317" y1="124.99674794479242" y2="125.91786077466803"/><line fill="none" stroke="#66e133" stroke-linecap="round" stroke-width="2.0" x1="18.592252954115317" x2="3.0313331295129426" y1="125.91786077466803" y2="117.95493579622601"/><line fill="none" stroke="#3399e1" stroke-linecap="round" stroke-width="2.0" x1="3.0313331295129426" x2="-6.372721400995234" y1="117.95493579622601" y2="103.36269955954084"/><line fill="none" stroke="#e10000" stroke-linecap="round" stroke-width="2.0" x1="-6.372721400995234" x2="-7.184836611229267" y1="103.36269955954084" y2="86.14183811519649"/><line fill="none" stroke="#00e1e1" stroke-linecap="round" stroke-width="2.0" x1="-7.184836611229267" x2="0.6937837042704436" y1="86.14183811519649" y2="70.94243872166142"/><line fill="none" stroke="#66e133" stroke-linecap="round" stroke-width="2.0" x1="0.6937837042704436" x2="15.031438283089589" y1="70.94243872166142" y2="61.8083453797656"/><line fill="none" stroke="#3399e1" stroke-linecap="round" stroke-width="2.0" x1="15.031438283089589" x2="31.8966316551583" y1="61.8083453797656" y2="61.10148434481691"/><line fill="none" stroke="#e10000" stroke-linecap="round" stroke-width="2.0" x1="31.8966316551583" x2="46.73582882280219" y1="61.10148434481691" y2="68.8922370311617"/><line fill="none" stroke="#00e1e1" stroke-linecap="round" stroke-width="2.0" x1="46.73582882280219" x2="55.60289005661895" y1="68.8922370311617" y2="82.97289131552445"/><line fill="none" stroke="#66e133" stroke-linecap="round" stroke-width="2.0" x1="55.60289005661895" x2="56.20824412445106" y1="82.97289131552445" y2="99.48179638074782"/><line fill="none" stroke="#3399e1" stroke-linecap="round" stroke-width="2.0" x1="56.20824412445106" x2="48.50891049476229" y1="99.48179638074782" y2="113.9621369036341"/><line fill="none" stroke="#e10000" stroke-linecap="round" stroke-width="2.0" x1="48.50891049476229" x2="34.68765142015978" y1="113.9621369036341" y2="122.56511299291373"/><line fill="none" stroke="#00e1e1" stroke-linecap="round" stroke-width="2.0" x1="34.68765142015978" x2="18.53562540464958" y1="122.56511299291373" y2="123.07271085961608"/><line fill="none" stroke="#66e133" stroke-linecap="round" stroke-width="2.0" x1="18.53562540464958" x2="4.412768654362738" y1="123.07271085961608" y2="115.46833598650018"/><line fill="none" stroke="#3399e1" stroke-linecap="round" stroke-width="2.0" x1="4.412768654362738" x2="-3.9290869686807426" y1="115.46833598650018" y2="101.90884319494278"/><line fill="none" stroke="#e10000" stroke-linecap="round" stroke-width="2.0" x1="-3.9290869686807426" x2="-4.342682751944942" y1="101.90884319494278" y2="86.11425746032899"/><line fill="none" stroke="#00e1e1" stroke-linecap="round" stroke-width="2.0" x1="-4.342682751944942" x2="3.163205580563936" y1="86.11425746032899" y2="72.34748440561836"/><line fill="none" stroke="#66e133" stroke-linecap="round" stroke-width="2.0" x1="3.163205580563936" x2="16.458584977430508" y1="72.34748440561836" y2="64.26376702477337"/><line fill="none" stroke="#3399e1" stroke-linecap="round" stroke-width="2.0" x1="16.458584977430508" x2="31.895198730282114" y1="64.26376702477337" y2="63.940416061774535"/><line fill="none" stroke="#e10000" stroke-linecap="round" stroke-width="2.0" x1="31.895198730282114" x2="45.307315283922286" y1="63.940416061774535" y2="71.34430217324133"/><line fill="none" stroke="#00e1e1" stroke-linecap="round" stroke-width="2.0" x1="45.307315283922286" x2="53.13589402255494" y1="71.34430217324133" y2="84.37324514391354"/><line fill="none" stroke="#66e133" stroke-linecap="round" stroke-width="2.0" x1="53.13589402255494" x2="53.372760367617005" y1="84.37324514391354" y2="99.45138476173697"/><line fill="none" stroke="#3399e1" stroke-linecap="round" stroke-width="2.0" x1="53.372760367617005" x2="46.0743798669014" y1="99.45138476173697" y2="112.51029903769323"/><line fill="none" stroke="#e10000" stroke-linecap="round" stroke-width="2.0" x1="46.0743798669014" x2="33.31417215640371" y1="112.51029903769323" y2="120.0867559395013"/><line fill="none" stroke="#00e1e1" stroke-linecap="round" stroke-width="2.0" x1="33.31417215640371" x2="18.59497926334337" y1="120.0867559395013" y2="120.24090060169225"/><line fill="none" stroke="#66e133" stroke-linecap="round" stroke-width="2.0" x1="18.59497926334337" x2="5.887786102620925" y1="120.24090060169225" y2="113.05151662418146"/><line fill="none" stroke="#3399e1" stroke-linecap="round" stroke-width="2.0" x1="5.887786102620925" x2="-1.4395828018533674" y1="113.05151662418146" y2="100.56231869406028"/><line fill="none" stroke="#e10000" stroke-linecap="round" stroke-width="2.0" x1="-1.4395828018533674" x2="-1.5147712424723663" y1="100.56231869406028" y2="86.20251553738723"/><line fill="none" stroke="#00e1e1" stroke-linecap="round" stroke-width="2.0" x1="-1.5147712424723663" x2="5.562137962560186" y1="86.20251553738723" y2="73.84553548141378"/><line fill="none" stroke="#66e133" stroke-linecap="round" stroke-width="2.0" x1="5.562137962560186" x2="17.778076021004516" y1="73.84553548141378" y2="66.76420387272239"/><line fill="none" stroke="#3399e1" stroke-linecap="round" stroke-width="2.0" x1="17.778076021004516" x2="31.77807602100453" y1="66.76420387272239" y2="66.76420387272258"/><line fill="none" stroke="#e10000" stroke-linecap="round" stroke-width="2.0" x1="31.77807602100453" x2="43.78637773851195" y1="66.76420387272258" y2="73.725172904496"/><line fill="none" stroke="#00e1e1" stroke-linecap="round" stroke-width="2.0" x1="43.78637773851195" x2="50.62473944225096" y1="73.725172904496" y2="85.66562554285257"/><line fill="none" stroke="#66e133" stroke-linecap="round" stroke-width="2.0" x1="50.62473944225096" x2="50.55332089559022" y1="85.66562554285257" y2="99.30543856910748"/><line fill="none" stroke="#3399e1" stroke-linecap="round" stroke-width="2.0" x1="50.55332089559022" x2="43.71174440467192" y1="99.30543856910748" y2="110.96662337678953"/><line fill="none" stroke="#e10000" stroke-linecap="round" stroke-width="2.0" x1="43.71174440467192" x2="32.04897807907715" y1="110.96662337678953" y2="117.56509908217585"/><line fill="none" stroke="#00e1e1" stroke-linecap="round" stroke-width="2.0" x1="32.04897807907715" x2="18.769706229903125" y1="117.56509908217585" y2="117.42603378911193"/><line fill="none" stroke="#66e133" stroke-linecap="round" stroke-width="2.0" x1="18.769706229903125" x2="7.454050335688338" y1="117.42603378911193" y2="110.70728898939502"/><line fill="none" stroke="#3399e1" stroke-linecap="round" stroke-width="2.0" x1="7.454050335688338" x2="1.0923603805194038" y1="110.70728898939502" y2="99.3243851017966"/><line fill="none" stroke="#e10000" stroke-linecap="round" stroke-width="2.0" x1="1.0923603805194038" x2="1.2952989201883034" y1="99.3243851017966" y2="86.4059790101335"/><line fill="none" stroke="#00e1e1" stroke-linecap="round" stroke-width="2.0" x1="1.2952989201883034" x2="7.887786279037165" y1="86.4059790101335" y2="75.43423756114653"/><line fill="none" stroke="#66e133" stroke-linecap="round" stroke-width="2.0" x1="7.887786279037165" x2="18.988676481397505" y1="75.43423756114653" y2="69.30621694147324"/><line fill="none" stroke="#3399e1" stroke-linecap="round" stroke-width="2.0" x1="18.988676481397505" x2="31.5459218658416" y1="69.30621694147324" y2="69.56925373520838"/><line fill="none" stroke="#e10000" stroke-linecap="round" stroke-width="2.0" x1="31.5459218658416" x2="42.17538971269367" y1="69.56925373520838" y2="76.03207148698964"/><line fill="none" stroke="#00e1e1" stroke-linecap="round" stroke-width="2.0" x1="42.17538971269367" x2="48.07287340252182" y1="76.03207148698964" y2="86.84882174426248"/><line fill="none" stroke="#66e133" stroke-linecap="round" stroke-width="2.0" x1="48.07287340252182" x2="47.7535146331656" y1="86.84882174426248" y2="99.04464110896431"/><line fill="none" stroke="#3399e1" stroke-linecap="round" stroke-width="2.0" x1="47.7535146331656" x2="41.42376488904688" y1="99.04464110896431" y2="109.33350247341228"/><line fill="none" stroke="#e10000" stroke-linecap="round" stroke-width="2.0" x1="41.42376488904688" x2="30.89325574107718" y1="109.33350247341228" y2="115.00359745361567"/><line fill="none" stroke="#00e1e1" stroke-linecap="round" stroke-width="2.0" x1="30.89325574107718" x2="19.05909806634687" y1="115.00359745361567" y2="114.63169406613046"/><line fill="none" stroke="#66e133" stroke-linecap="round" stroke-width="2.0" x1="19.05909806634687" x2="9.109149887333372" y1="114.63169406613046" y2="108.43839678318439"/><line fill="none" stroke="#3399e1" stroke-linecap="round" stroke-width="2.0" x1="9.109149887333372" x2="3.663279759017154" y1="108.43839678318439" y2="98.19620470602071"/><line fill="none" stroke="#e10000" stroke-linecap="round" stroke-width="2.0" x1="3.663279759017154" x2="4.083949534968584" y1="98.19620470602071" y2="86.72391474544168"/><line fill="none" stroke="#00e1e1" stroke-linecap="round" stroke-width="2.0" x1="4.083949534968584" x2="10.137424031132245" y1="86.72391474544168" y2="77.11116037823258"/><line fill="none" stroke="#66e133" stroke-linecap="round" stroke-width="2.0" x1="10.137424031132245" x2="20.08924838461201" y1="77.11116037823258" y2="71.88633578428797"/><line fill="none" stroke="#3399e1" stroke-linecap="round" stroke-width="2.0" x1="20.08924838461201" x2="31.199494255311375" y1="71.88633578428797" y2="72.35199305375683"/><line fill="none" stroke="#e10000" stroke-linecap="round" stroke-width="2.0" x1="31.199494255311375" x2="40.476800159253095" y1="72.35199305375683" y2="78.26228874557206"/><line fill="none" stroke="#00e1e1" stroke-linecap="round" stroke-width="2.0" x1="40.476800159253095" x2="45.4837738177013" y1="78.26228874557206" y2="87.92172013585625"/><line fill="none" stroke="#66e133" stroke-linecap="round" stroke-width="2.0" x1="45.4837738177013" x2="44.976908408065384" y1="87.92172013585625" y2="98.66977519044711"/><line fill="none" stroke="#3399e1" stroke-linecap="round" stroke-width="2.0" x1="44.976908408065384" x2="39.213133050656864" y1="98.66977519044711" y2="107.61340385164118"/><line fill="none" stroke="#e10000" stroke-linecap="round" stroke-width="2.0" x1="39.213133050656864" x2="29.848094346147676" y1="107.61340385164118" y2="112.40573627573767"/><line fill="none" stroke="#00e1e1" stroke-linecap="round" stroke-width="2.0" x1="29.848094346147676" x2="19.462347184700036" y1="112.40573627573767" y2="111.8614423308109"/><line fill="none" stroke="#66e133" stroke-linecap="round" stroke-width="2.0" x1="19.462347184700036" x2="10.850598777841936" y1="111.8614423308109" y2="106.2475141715824"/><line fill="none" stroke="#3399e1" stroke-linecap="round" stroke-width="2.0" x1="10.850598777841936" x2="6.269682964437412" y1="106.2475141715824" y2="97.17884225610865"/><line fill="none" stroke="#e10000" stroke-linecap="round" stroke-width="2.0" x1="6.269682964437412" x2="6.847625795111619" y1="97.17884225610865" y2="87.15549041730372"/><line fill="none" stroke="#00e1e1" stroke-linecap="round" stroke-width="2.0" x1="6.847625795111619" x2="12.308394736754947" y1="87.15549041730372" y2="78.87379961373074"/><line fill="none" stroke="#66e133" stroke-linecap="round" stroke-width="2.0" x1="12.308394736754947" x2="21.07875148045494" y1="78.87379961373074" y2="74.5010610452547"/><line fill="none" stroke="#3399e1" stroke-linecap="round" stroke-width="2.0" x1="21.07875148045494" x2="30.7396502116407" y1="74.5010610452547" y2="75.1088732742986"/><line fill="none" stroke="#e10000" stroke-linecap="round" stroke-width="2.0" x1="30.7396502116407" x2="38.69313161920812" y1="75.1088732742986" y2="80.41318600070164"/><line fill="none" stroke="#00e1e1" stroke-linecap="round" stroke-width="2.0" x1="38.69313161920812" x2="42.86094686956211" y1="80.41318600070164" y2="88.88330501042746"/><line fill="none" stroke="#66e133" stroke-linecap="round" stroke-width="2.0" x1="42.86094686956211" x2="42.227044360561855" y1="88.88330501042746" y2="98.1817224891754"/><line fill="none" stroke="#3399e1" stroke-linecap="round" stroke-width="2.0" x1="42.227044360561855" x2="37.08246964863081" y1="98.1817224891754" y2="105.8088681566818"/><line fill="none" stroke="#e10000" stroke-linecap="round" stroke-width="2.0" x1="37.08246964863081" x2="28.914485015717617" y1="105.8088681566818" y2="109.77502839506046"/><line fill="none" stroke="#00e1e1" stroke-linecap="round" stroke-width="2.0" x1="28.914485015717617" x2="19.978547299786367" y1="109.77502839506046" y2="109.11881414879674"/><line fill="none" stroke="#66e133" stroke-linecap="round" stroke-width="2.0" x1="19.978547299786367" x2="12.675838376443792" y1="109.11881414879674" y2="104.13724387618844"/><line fill="none" stroke="#3399e1" stroke-linecap="round" stroke-width="2.0" x1="12.675838376443792" x2="8.908050646890572" y1="104.13724387618844" y2="96.27326424593568"/><line fill="none" stroke="#e10000" stroke-linecap="round" stroke-width="2.0" x1="8.908050646890572" x2="9.582798870150176" y1="96.27326424593568" y2="87.69977517583067"/><line fill="none" stroke="#00e1e1" stroke-linecap="round" stroke-width="2.0" x1="9.582798870150176" x2="14.39811382820065" y1="87.69977517583067" y2="80.71957877065857"/><line fill="none" stroke="#66e133" stroke-linecap="round" stroke-width="2.0" x1="14.39811382820065" x2="21.956243943364925" y1="80.71957877065857" y2="77.1468670327417"/><line fill="none" stroke="#3399e1" stroke-linecap="round" stroke-width="2.0" x1="21.956243943364925" x2="30.16734510358096" y1="77.1468670327417" y2="77.83637246180011"/><line fill="none" stroke="#e10000" stroke-linecap="round" stroke-width="2.0" x1="30.16734510358096" x2="36.82697833567603" y1="77.83637246180011" y2="82.48219695417788"/><line fill="none" stroke="#00e1e1" stroke-linecap="round" stroke-width="2.0" x1="36.82697833567603" x2="40.207924429601576" y1="82.48219695417788" y2="89.73265925047126"/><line fill="none" stroke="#66e133" stroke-linecap="round" stroke-width="2.0" x1="40.207924429601576" x2="39.507437370293886" y1="89.73265925047126" y2="97.58146284590825"/><line fill="none" stroke="#3399e1" stroke-linecap="round" stroke-width="2.0" x1="39.507437370293886" x2="35.03432259681611" y1="97.58146284590825" y2="103.9225072569889"/><line fill="none" stroke="#e10000" stroke-linecap="round" stroke-width="2.0" x1="35.03432259681611" x2="28.093320120511777" y1="103.9225072569889" y2="107.11501170082907"/><line fill="none" stroke="#00e1e1" stroke-linecap="round" stroke-width="2.0" x1="28.093320120511777" x2="20.606694146696483" y1="107.11501170082907" y2="106.40731718467372"/><line fill="none" stroke="#66e133" stroke-linecap="round" stroke-width="2.0" x1="20.606694146696483" x2="14.58223931085967" y1="106.40731718467372" y2="102.11011531241259"/><line fill="none" stroke="#3399e1" stroke-linecap="round" stroke-width="2.0" x1="14.58223931085967" x2="11.574839061737048" y1="102.11011531241259" y2="95.48033826174344"/><line fill="none" stroke="#e10000" stroke-linecap="round" stroke-width="2.0" x1="11.574839061737048" x2="12.28596846990163" y1="95.48033826174344" y2="88.35574038082092"/><line fill="none" stroke="#00e1e1" stroke-linecap="round" stroke-width="2.0" x1="12.28596846990163" x2="16.404070501811805" y1="88.35574038082092" y2="82.645851095136"/><line fill="none" stroke="#66e133" stroke-linecap="round" stroke-width="2.0" x1="16.404070501811805" x2="22.720883008264646" y1="82.645851095136" y2="79.82020430929684"/><line fill="none" stroke="#3399e1" stroke-linecap="round" stroke-width="2.0" x1="22.720883008264646" x2="29.48363189676905" y1="79.82020430929684" y2="80.530997859517"/><line fill="none" stroke="#e10000" stroke-linecap="round" stroke-width="2.0" x1="29.48363189676905" x2="34.88100432120796" y1="80.530997859517" y2="84.46682952663751"/><line fill="none" stroke="#00e1e1" stroke-linecap="round" stroke-width="2.0" x1="34.88100432120796" x2="37.52826146527961" y1="84.46682952663751" y2="90.46896494773254"/><line fill="none" stroke="#66e133" stroke-linecap="round" stroke-width="2.0" x1="37.52826146527961" x2="36.82157250185316" y1="90.46896494773254" y2="96.87007350086405"/><line fill="none" stroke="#3399e1" stroke-linecap="round" stroke-width="2.0" x1="36.82157250185316" x2="33.07116513851759" y1="96.87007350086405" y2="101.9570023001535"/><line fill="none" stroke="#e10000" stroke-linecap="round" stroke-width="2.0" x1="33.07116513851759" x2="27.38539267732963" y1="101.9570023001535" y2="104.42924652749001"/><line fill="none" stroke="#00e1e1" stroke-linecap="round" stroke-width="2.0" x1="27.38539267732963" x2="21.345686262479063" y1="104.42924652749001" y2="103.73042865249326"/><line fill="none" stroke="#66e133" stroke-linecap="round" stroke-width="2.0" x1="21.345686262479063" x2="16.567103422786207" y1="103.73042865249326" y2="100.16858277651897"/><line fill="none" stroke="#3399e1" stroke-linecap="round" stroke-width="2.0" x1="16.567103422786207" x2="14.26648267077507" y1="100.16858277651897" y2="94.8008323952682"/><line fill="none" stroke="#e10000" stroke-linecap="round" stroke-width="2.0" x1="14.26648267077507" x2="14.953665388909362" y1="94.8008323952682" y2="89.12226039943161"/><line fill="none" stroke="#00e1e1" stroke-linecap="round" stroke-width="2.0" x1="14.953665388909362" x2="18.323829518561013" y1="89.12226039943161" y2="84.64990154316668"/><line fill="none" stroke="#66e133" stroke-linecap="round" stroke-width="2.0" x1="18.323829518561013" x2="23.371925541061366" y1="84.64990154316668" y2="82.51750229639836"/><line fill="none" stroke="#3399e1" stroke-linecap="round" stroke-width="2.0" x1="23.371925541061366" x2="28.68966034010714" y1="82.51750229639836" y2="83.18928842830314"/><line fill="none" stroke="#e10000" stroke-linecap="round" stroke-width="2.0" x1="28.68966034010714" x2="32.857941379786894" y1="83.18928842830314" y2="86.36466764569565"/><line fill="none" stroke="#00e1e1" stroke-linecap="round" stroke-width="2.0" x1="32.857941379786894" x2="34.825533431805084" y1="86.36466764569565" y2="91.09150395731432"/><line fill="none" stroke="#66e133" stroke-linecap="round" stroke-width="2.0" x1="34.825533431805084" x2="34.17290247070472" y1="91.09150395731432" y2="96.04872826418355"/><line fill="none" stroke="#3399e1" stroke-linecap="round" stroke-width="2.0" x1="34.17290247070472" x2="31.195394070866353" y1="96.04872826418355" y2="99.91510172375699"/><line fill="none" stroke="#e10000" stroke-linecap="round" stroke-width="2.0" x1="31.195394070866353" x2="26.791395811349823" y1="99.91510172375699" y2="101.72131304311506"/><line fill="none" stroke="#00e1e1" stroke-linecap="round" stroke-width="2.0" x1="26.791395811349823" x2="22.19432583156214" y1="101.72131304311506" y2="101.09159278701979"/><line fill="none" stroke="#66e133" stroke-linecap="round" stroke-width="2.0" x1="22.19432583156214" x2="18.627665768109225" y1="101.09159278701979" y2="98.31502368257239"/><line fill="none" stroke="#3399e1" stroke-linecap="round" stroke-width="2.0" x1="18.627665768109225" x2="16.979396757079204" y1="98.31502368257239" y2="94.23541472247831"/><line fill="none" stroke="#e10000" stroke-linecap="round" stroke-width="2.0" x1="16.979396757079204" x2="17.582454029772155" y1="94.23541472247831" y2="89.99811346745125"/><line fill="none" stroke="#00e1e1" stroke-linecap="round" stroke-width="2.0" x1="17.582454029772155" x2="20.15503295445976" y1="89.99811346745125" y2="86.72894879184146"/><line fill="none" stroke="#66e133" stroke-linecap="round" stroke-width="2.0" x1="20.15503295445976" x2="23.908728543457563" y1="86.72894879184146" y2="85.23517189245517"/><line fill="none" stroke="#3399e1" stroke-linecap="round" stroke-width="2.0" x1="23.908728543457563" x2="27.786676088672678" y1="85.23517189245517" y2="85.80781736441992"/><line fill="none" stroke="#e10000" stroke-linecap="round" stroke-width="2.0" x1="27.786676088672678" x2="30.76058708471198" y1="85.80781736441992" y2="88.17337298364305"/><line fill="none" stroke="#00e1e1" stroke-linecap="round" stroke-width="2.0" x1="30.76058708471198" x2="32.10333365107444" y1="88.17337298364305" y2="91.59965838601738"/><line fill="none" stroke="#66e133" stroke-linecap="round" stroke-width="2.0" x1="32.10333365107444" x2="31.56484513099425" y1="91.59965838601738" y2="95.11869662305651"/><line fill="none" stroke="#3399e1" stroke-linecap="round" stroke-width="2.0" x1="31.56484513099425" x2="29.40932801990032" y1="95.11869662305651" y2="97.79961922242092"/><line fill="none" stroke="#e10000" stroke-linecap="round" stroke-width="2.0" x1="29.40932801990032" x2="26.311922284279472" y1="97.79961922242092" y2="98.99480862537952"/><line fill="none" stroke="#00e1e1" stroke-linecap="round" stroke-width="2.0" x1="26.311922284279472" x2="23.15131959437482" y1="98.99480862537952" y2="98.49421833725069"/><line fill="none" stroke="#66e133" stroke-linecap="round" stroke-width="2.0" x1="23.15131959437482" x2="20.761096660609713" y1="98.49421833725069" y2="96.55173685036215"/><line fill="none" stroke="#3399e1" stroke-linecap="round" stroke-width="2.0" x1="20.761096660609713" x2="19.709980051881594" y1="96.55173685036215" y2="93.78465284822971"/><line fill="none" stroke="#e10000" stroke-linecap="round" stroke-width="2.0" x1="19.709980051881594" x2="20.168934903815224" y1="93.78465284822971" y2="90.98198261363416"/><line fill="none" stroke="#00e1e1" stroke-linecap="round" stroke-width="2.0" x1="20.168934903815224" x2="21.895401899725577" y1="90.98198261363416" y2="88.88014729372121"/><line fill="none" stroke="#66e133" stroke-linecap="round" stroke-width="2.0" x1="21.895401899725577" x2="24.33074959177165" y1="88.88014729372121" y2="87.96960810244656"/><line fill="none" stroke="#3399e1" stroke-linecap="round" stroke-width="2.0" x1="24.33074959177165" x2="26.77601976370673" y1="87.96960810244656" y2="88.38319459430257"/><line fill="none" stroke="#e10000" stroke-linecap="round" stroke-width="2.0" x1="26.77601976370673" x2="28.591802713617565" y1="88.38319459430257" y2="89.89068664363957"/><line fill="none" stroke="#00e1e1" stroke-linecap="round" stroke-width="2.0" x1="28.591802713617565" x2="29.36527067937433" y1="89.89068664363957" y2="91.99291101462121"/><line fill="none" stroke="#66e133" stroke-linecap="round" stroke-width="2.0" x1="29.36527067937433" x2="29.000780986781905" y1="91.99291101462121" y2="94.08134278606957"/><line fill="none" stroke="#3399e1" stroke-linecap="round" stroke-width="2.0" x1="29.000780986781905" x2="27.715205767408637" y1="94.08134278606957" y2="95.6134316723077"/><line fill="none" stroke="none" stroke-linecap="round" stroke-width="2.0" x1="0.0" x2="0.0" y1="0.0" y2="0.0"/><line fill="none" stroke="none" stroke-linecap="round" stroke-width="2.0" x1="0.0" x2="0.0" y1="0.0" y2="0.0"/><line fill="none" stroke="none" stroke-linecap="round" stroke-width="2.0" x1="0.0" x2="0.0" y1="0.0" y2="0.0"/><polygon fill="#000" fill-rule="evenodd" points="0.0,0.0 -9.0,-5.0 -7.0,0.0 -9.0,5.0" stroke="#000" stroke-linejoin="round"/></svg>